<?xml version="1.0" standalone="no"?>
<!DOCTYPE svg PUBLIC "-//W3C//DTD SVG 20010904//EN"
 "http://www.w3.org/TR/2001/REC-SVG-20010904/DTD/svg10.dtd">
<svg version="1.0" xmlns="http://www.w3.org/2000/svg"
 width="679.000000pt" height="679.000000pt" viewBox="0 0 679.000000 679.000000"
 preserveAspectRatio="xMidYMid meet">
<metadata>
Created by potrace 1.14, written by Peter Selinger 2001-2017
</metadata>
<g transform="translate(0.000000,679.000000) scale(0.100000,-0.100000)"
fill="#000000" stroke="none">
<path d="M5365 6614 c-201 -31 -304 -62 -448 -137 -335 -174 -507 -458 -461
-764 24 -161 82 -281 183 -375 177 -167 429 -207 814 -128 64 13 89 15 92 6 5
-18 34 -193 45 -279 48 -371 -63 -552 -422 -688 -138 -53 -252 -85 -693 -198
-676 -173 -823 -219 -1038 -327 -205 -104 -410 -228 -832 -506 -373 -246 -554
-344 -694 -378 -67 -16 -255 -8 -361 15 -477 105 -812 542 -1006 1310 -36 142
-40 152 -79 193 -37 37 -48 42 -86 42 -58 0 -103 -28 -130 -82 -18 -34 -25
-77 -36 -218 -18 -220 -21 -726 -5 -880 48 -451 152 -767 349 -1064 81 -121
314 -360 440 -449 178 -126 411 -252 635 -342 93 -38 96 -41 102 -75 19 -113
-2 -271 -56 -434 -45 -138 -47 -202 -8 -268 48 -83 168 -142 308 -154 l80 -7
5 -38 c7 -54 42 -106 88 -129 36 -19 60 -20 514 -20 520 0 507 -1 558 59 52
62 57 125 23 276 -30 132 -15 296 38 439 l23 61 168 12 c273 19 490 61 712
136 l102 35 -31 -61 c-27 -52 -32 -73 -32 -132 0 -91 33 -150 126 -221 25 -19
26 -23 17 -70 -17 -92 19 -195 83 -234 32 -19 52 -20 514 -20 l481 0 34 23
c18 12 44 40 57 62 22 39 23 46 18 200 -3 88 -19 262 -35 386 l-29 226 43 114
c66 172 111 330 134 469 22 132 41 319 41 409 0 53 0 54 82 140 192 202 358
478 491 816 244 620 341 1397 251 2011 -96 658 -406 1096 -859 1214 -78 20
-248 33 -310 24z m199 -369 c311 -54 521 -292 626 -710 83 -328 97 -796 34
-1175 -70 -423 -172 -762 -324 -1075 -108 -222 -295 -485 -402 -567 -68 -52
-78 -89 -88 -330 -16 -341 -30 -410 -151 -720 -49 -124 -69 -189 -69 -221 0
-24 11 -152 25 -283 14 -132 25 -249 25 -261 l0 -23 -260 0 c-143 0 -260 2
-260 3 0 2 9 38 20 81 31 122 50 295 56 511 l6 200 -31 48 c-22 34 -44 54 -76
68 -53 23 -78 19 -155 -26 -374 -219 -691 -307 -1160 -321 -204 -6 -257 -17
-289 -63 -32 -44 -80 -176 -118 -321 -34 -127 -36 -145 -37 -297 l-1 -163
-278 0 -277 0 7 58 c5 31 8 156 7 277 0 245 -26 444 -65 514 -30 54 -68 73
-239 126 -601 183 -1021 438 -1271 771 -169 225 -271 537 -304 934 l-6 75 46
-85 c125 -230 327 -465 495 -577 223 -149 465 -223 735 -225 144 0 214 12 342
62 121 47 248 122 668 400 430 284 546 355 704 434 231 116 343 152 1016 321
669 168 853 236 1051 386 116 87 182 167 245 295 113 230 123 517 33 945 -35
167 -51 215 -85 254 -51 57 -84 61 -224 26 -281 -70 -500 -77 -634 -19 -63 27
-89 53 -122 123 -57 118 -30 218 89 335 113 111 325 201 514 219 46 5 86 9 89
10 4 0 46 -6 93 -14z m-3475 -5155 c6 -47 14 -133 18 -192 l6 -108 -56 0 c-82
0 -86 3 -76 57 21 111 83 343 89 336 5 -4 13 -46 19 -93z"/>
<path d="M5381 6044 c-30 -38 -28 -98 4 -129 27 -28 33 -29 70 -15 35 13 57
67 45 110 -18 63 -82 81 -119 34z"/>
</g>
</svg>
