<?xml version="1.0" standalone="no"?>
<!DOCTYPE svg PUBLIC "-//W3C//DTD SVG 20010904//EN"
 "http://www.w3.org/TR/2001/REC-SVG-20010904/DTD/svg10.dtd">
<svg version="1.0" xmlns="http://www.w3.org/2000/svg"
 width="679.000000pt" height="679.000000pt" viewBox="0 0 679.000000 679.000000"
 preserveAspectRatio="xMidYMid meet">
<metadata>
Created by potrace 1.14, written by Peter Selinger 2001-2017
</metadata>
<g transform="translate(0.000000,679.000000) scale(0.100000,-0.100000)"
fill="#000000" stroke="none">
<path d="M5337 6610 c-174 -28 -330 -80 -460 -154 -308 -176 -464 -451 -421
-742 16 -105 27 -140 76 -237 70 -135 203 -238 368 -283 99 -28 337 -25 495 5
66 13 127 24 135 25 19 1 57 -208 66 -369 17 -287 -67 -438 -311 -555 -163
-79 -241 -103 -1001 -299 -418 -108 -587 -160 -724 -221 -247 -110 -459 -235
-985 -582 -329 -217 -479 -300 -630 -349 -61 -19 -82 -21 -199 -16 -288 12
-512 111 -705 312 -98 103 -156 180 -226 304 -112 199 -195 419 -271 717 -35
141 -40 151 -79 192 -37 37 -48 42 -86 42 -58 0 -103 -28 -130 -82 -31 -61
-50 -319 -51 -693 -1 -427 37 -716 131 -1004 54 -163 171 -390 270 -521 92
-122 260 -290 381 -379 167 -124 457 -281 676 -366 68 -26 72 -29 78 -64 19
-118 -3 -288 -60 -451 -41 -121 -43 -187 -4 -252 48 -82 168 -142 307 -154
l79 -7 11 -48 c16 -65 37 -94 87 -119 41 -19 59 -20 509 -20 511 0 510 0 559
58 53 63 58 126 24 272 -31 133 -11 334 48 471 l15 36 128 7 c262 15 526 64
750 140 l101 34 -31 -66 c-26 -54 -32 -79 -32 -132 1 -86 37 -147 126 -216 25
-18 26 -23 19 -69 -10 -65 4 -140 35 -187 47 -71 29 -69 568 -66 l482 3 34 24
c51 37 71 90 71 197 0 97 -18 283 -50 525 l-19 147 38 98 c112 291 159 506
177 824 l7 125 79 84 c146 154 261 326 378 566 162 330 265 654 329 1035 127
743 75 1386 -148 1845 -119 244 -270 408 -479 518 -157 82 -375 122 -535 97z
m227 -365 c321 -56 522 -290 635 -740 70 -274 85 -726 36 -1075 -83 -593 -288
-1157 -548 -1503 -34 -45 -102 -122 -151 -172 -49 -49 -95 -104 -102 -122 -9
-20 -17 -111 -24 -250 -14 -325 -36 -429 -156 -729 -46 -115 -64 -174 -64
-207 0 -25 11 -152 25 -283 14 -131 25 -248 25 -261 l0 -23 -260 0 c-143 0
-260 2 -260 4 0 3 11 51 24 108 34 144 49 293 50 509 l1 185 -28 43 c-36 54
-97 84 -147 72 -19 -5 -87 -39 -150 -75 -332 -190 -716 -285 -1170 -286 -187
-1 -208 -17 -278 -220 -70 -203 -87 -295 -87 -467 l0 -153 -278 0 -277 0 7 73
c14 131 8 473 -11 582 -39 235 -46 243 -276 315 -904 285 -1356 667 -1516
1279 -27 105 -59 303 -69 426 l-6 80 45 -82 c216 -397 502 -645 863 -752 128
-38 231 -52 381 -52 261 -1 392 59 967 441 187 124 390 257 450 295 131 82
379 211 489 255 111 44 363 114 812 226 645 160 856 239 1065 396 126 95 227
239 278 398 32 98 54 288 46 400 -14 206 -83 576 -121 651 -18 36 -67 76 -103
84 -19 4 -64 -3 -123 -19 -353 -95 -650 -81 -744 37 -137 173 -45 380 231 520
88 44 229 85 331 96 44 5 84 9 90 10 6 0 50 -6 98 -14z m-3470 -5205 c9 -74
16 -161 16 -193 l0 -58 -67 3 -68 3 3 30 c6 61 85 366 93 358 4 -4 15 -69 23
-143z"/>
<path d="M5381 6044 c-44 -56 -14 -147 47 -147 39 0 60 17 70 57 24 86 -66
155 -117 90z"/>
</g>
</svg>
